<?xml version="1.0" encoding="UTF-8"?>
<!DOCTYPE svg PUBLIC "-//W3C//DTD SVG 1.1//EN" "http://www.w3.org/Graphics/SVG/1.1/DTD/svg11.dtd">
<!-- Creator: CorelDRAW -->
<svg xmlns="http://www.w3.org/2000/svg" xml:space="preserve" width="19px" height="19px" version="1.1" style="shape-rendering:geometricPrecision; text-rendering:geometricPrecision; image-rendering:optimizeQuality; fill-rule:evenodd; clip-rule:evenodd"
viewBox="0 0 19 19"
 xmlns:xlink="http://www.w3.org/1999/xlink"
 xmlns:xodm="http://www.corel.com/coreldraw/odm/2003">
 <defs>
  <style type="text/css">
   <![CDATA[
    .fil1 {fill:#3E4095}
    .fil0 {fill:#66FFCC}
    .fil2 {fill:white;fill-rule:nonzero}
   ]]>
  </style>
 </defs>
 <g id="Capa_x0020_1">
  <metadata id="CorelCorpID_0Corel-Layer"/>
  <circle class="fil0" cx="9" cy="10" r="9"/>
  <circle class="fil1" cx="9" cy="10" r="8"/>
  <path class="fil2" d="M9.63 13.65c-2.75,0 -3.95,-1.98 -3.95,-3.66 0,-1.65 1.2,-3.64 3.95,-3.64 1.4,0 2.36,0.77 2.36,0.77l1.16 -2.41c0,0 -1.34,-1.15 -3.94,-1.15 -3.4,0 -6.5,2.9 -6.5,6.46 0,3.56 3.11,6.42 6.5,6.42 2.6,0 3.94,-1.15 3.94,-1.15l-1.16 -2.41c0,0 -0.96,0.77 -2.36,0.77z"/>
  <polygon class="fil2" points="13.3,11.93 14.2,11.93 13.85,7.98 12.89,7.98 12.01,10.26 11.14,7.98 10.18,7.98 9.82,11.93 10.73,11.93 10.91,9.59 10.94,9.59 11.75,11.91 12.28,11.91 13.09,9.59 13.12,9.59 "/>
 </g>
</svg>
